<?xml version="1.0" encoding="UTF-8"?>
<svg width="48px" height="48px" viewBox="0 0 48 48" version="1.1" xmlns="http://www.w3.org/2000/svg" xmlns:xlink="http://www.w3.org/1999/xlink">
    <!-- Generator: Sketch 47.1 (45422) - http://www.bohemiancoding.com/sketch -->
    <title>credito</title>
    <desc>Created with Sketch.</desc>
    <defs></defs>
    <g id="Symbols" stroke="none" stroke-width="1" fill="none" fill-rule="evenodd">
        <g id="credito">
            <g id="Group-60">
                <g id="icon">
                    <path d="M24,47.5 C36.9786916,47.5 47.5,36.9786916 47.5,24 C47.5,11.0213084 36.9786916,0.5 24,0.5 C11.0213084,0.5 0.5,11.0213084 0.5,24 C0.5,36.9786916 11.0213084,47.5 24,47.5 Z" id="Oval" stroke="#EEEEEE"></path>
                    <g id="Group" transform="translate(14.000000, 24.000000)" fill="#FFFFFF">
                        <path d="M0,0.5 C0,0.223637961 0.225138652,0 0.5,0 L3.5,0 C3.77683817,0 4,0.221660808 4,0.5 C4,0.775922671 3.77442205,1 3.5,1 L0.5,1 C0.223161825,1 0,0.777899824 0,0.5" id="Fill-10"></path>
                        <path d="M5,0.5 C5,0.223637961 5.22513865,0 5.5,0 L8.5,0 C8.77639888,0 9,0.221660808 9,0.5 C9,0.775922671 8.77442205,1 8.5,1 L5.5,1 C5.22316183,1 5,0.777899824 5,0.5" id="Fill-11"></path>
                        <path d="M10,0.5 C10,0.223637961 10.2255779,0 10.5,0 L13.5,0 C13.7763989,0 14,0.221660808 14,0.5 C14,0.775922671 13.7744221,1 13.5,1 L10.5,1 C10.2231618,1 10,0.777899824 10,0.5" id="Fill-12"></path>
                        <path d="M16,0.5 C16,0.223637961 16.2255779,0 16.5,0 L19.5,0 C19.7768382,0 20,0.221660808 20,0.5 C20,0.775922671 19.7744221,1 19.5,1 L16.5,1 C16.2231618,1 16,0.777899824 16,0.5" id="Fill-13"></path>
                    </g>
                </g>
                <g id="icono_tc" transform="translate(12.000000, 12.000000)">
                    <rect id="Rectangle-51" opacity="0.3" x="0" y="0" width="24" height="24"></rect>
                    <g id="Group-2" transform="translate(0.000000, 4.000000)">
                        <path d="M1.584,0 L22.416,0 L22.416,0 C23.290819,-1.71469244e-15 24,0.709180956 24,1.584 L24,14.416 L24,14.416 C24,15.290819 23.290819,16 22.416,16 L1.584,16 L1.584,16 C0.709180956,16 -1.14910171e-16,15.290819 -2.22044605e-16,14.416 L0,1.584 L2.22044605e-16,1.584 C1.14910171e-16,0.709180956 0.709180956,8.26835466e-16 1.584,6.66133815e-16 Z" id="Rectangle-path" fill="#5697FA"></path>
                        <rect id="Rectangle-path" fill="#0864EE" x="0" y="3" width="24" height="3"></rect>
                        <rect id="Rectangle-path" fill="#FFFFFF" x="2" y="7" width="20" height="3"></rect>
                        <rect id="Rectangle-path" fill="#0864EE" x="2" y="13" width="10" height="1" rx="0.5"></rect>
                        <rect id="Rectangle-path" fill="#0864EE" x="2" y="11" width="15" height="1" rx="0.5"></rect>
                    </g>
                </g>
            </g>
        </g>
    </g>
</svg>