<svg xmlns="http://www.w3.org/2000/svg" viewBox="0 0 210.45 54.18"><title>MercadoLibre logo</title><path d="M485.4,510.51c0-14.1-17.6-25.6-39.31-25.6s-39.31,11.5-39.31,25.6V512c0,15,15.38,27.08,39.31,27.08S485.4,527,485.4,512v-1.5Z" transform="translate(-406.78 -484.91)" style="fill:#2d3277"/><path d="M483.89,510.5c0,13.29-16.92,24.07-37.8,24.07s-37.8-10.78-37.8-24.07,16.92-24.08,37.79-24.08,37.8,10.78,37.8,24.08" transform="translate(-406.78 -484.91)" style="fill:#ffe600"/><path d="M433.55,502.9s-.4.43-.15.74c.6.76,2.44,1.2,4.3.78a12.5,12.5,0,0,0,3.91-2.46,15.63,15.63,0,0,1,4.46-2.83,5.13,5.13,0,0,1,3.25-.09,10,10,0,0,1,3,1.72c2.59,1.94,13,11,14.78,12.54A90,90,0,0,1,483.69,508c-.76-4.64-3.59-8.88-7.89-12.36-6,2.51-13.31,3.81-20.47.33a19.91,19.91,0,0,0-7.73-1.75c-5.68.13-8.14,2.58-10.75,5.17Z" transform="translate(-406.78 -484.91)" style="fill:#fff"/><path d="M466.65,514.28c-.12-.11-12.23-10.65-15-12.71a6.72,6.72,0,0,0-3.4-1.6,4.62,4.62,0,0,0-1.61.15,14.6,14.6,0,0,0-4.42,2.62c-1.53,1.22-3,2.36-4.32,2.66a7,7,0,0,1-4.76-.71,2.1,2.1,0,0,1-.79-.86,1.46,1.46,0,0,1,.41-1.58l3.34-3.6q.58-.58,1.18-1.15a21.67,21.67,0,0,0-3,.68,13.28,13.28,0,0,1-3.55.66,33.6,33.6,0,0,1-3.63-.57,54.38,54.38,0,0,1-9.64-3.47c-4.75,3.52-7.92,7.92-8.84,12.77.68.18,1.78.5,2.24.61,10.75,2.38,14.09,4.83,14.7,5.34a3.57,3.57,0,0,1,5.58.33,4.07,4.07,0,0,1,2.56-.9,4.8,4.8,0,0,1,1.54.27,3.53,3.53,0,0,1,2.16,1.94,3.59,3.59,0,0,1,1.5-.32,4.53,4.53,0,0,1,1.79.39,3.79,3.79,0,0,1,2.11,4.25,4.26,4.26,0,0,1,4.67,3.81q0,.21,0,.41a4.24,4.24,0,0,1-.51,2,6.78,6.78,0,0,0,3.7,1,2.36,2.36,0,0,0,1.73-.75c.11-.15.22-.32.11-.45l-3-3.35s-.5-.47-.34-.65.48.08.7.26c1.54,1.28,3.43,3.22,3.43,3.22s.16.27.85.39a3.17,3.17,0,0,0,2.4-.56,3.65,3.65,0,0,0,.53-.54l0,0a1.6,1.6,0,0,0-.09-2l-3.54-4s-.5-.47-.33-.65.48.09.7.27c1.12.93,2.71,2.52,4.22,4a2.9,2.9,0,0,0,3.4-.12,2.42,2.42,0,0,0,1.26-2.21,2.51,2.51,0,0,0-.75-1.47L457,513.34s-.51-.43-.33-.65.48.08.7.26c1.54,1.28,5.71,5.09,5.71,5.09a2.94,2.94,0,0,0,3.28-.07,2.18,2.18,0,0,0,1.08-1.73,2.54,2.54,0,0,0-.81-2" transform="translate(-406.78 -484.91)" style="fill:#fff"/><path d="M443.19,520.42a10.61,10.61,0,0,0-1.68.37c-.06,0,0-.34.11-.51s1.06-3.13-1.35-4.16a2.84,2.84,0,0,0-3.35.5c-.1.1-.15.09-.16,0a2.64,2.64,0,0,0-1.87-2.46,3.64,3.64,0,0,0-4.1,1.46,2.63,2.63,0,1,0-.78,2.22s0,0,0,.09a3.45,3.45,0,0,0,2.17,4,2.6,2.6,0,0,0,2.54-.39c.21-.15.24-.09.21.11-.09.61,0,1.9,1.85,2.64a2.36,2.36,0,0,0,2.75-.51c.24-.21.3-.18.31.15a3.32,3.32,0,1,0,3.31-3.45" transform="translate(-406.78 -484.91)" style="fill:#fff"/><path d="M443.19,526.79a3.05,3.05,0,0,1-3.07-2.93c0-.14,0-.51-.34-.51a.6.6,0,0,0-.37.2,2.15,2.15,0,0,1-1.51.68,2.65,2.65,0,0,1-1-.21c-1.75-.71-1.78-1.91-1.71-2.39a.45.45,0,0,0-.06-.37l-.11-.09h-.11a.52.52,0,0,0-.3.12,2.6,2.6,0,0,1-1.49.53,2.31,2.31,0,0,1-.83-.16,3.21,3.21,0,0,1-2-3.72.3.3,0,0,0-.1-.3l-.16-.14-.15.14a2.37,2.37,0,1,1,.71-2l.08.64.35-.54a3.52,3.52,0,0,1,2.79-1.52,3.57,3.57,0,0,1,1,.16,2.42,2.42,0,0,1,1.7,2.25c0,.31.25.33.29.33a.4.4,0,0,0,.28-.14,2.42,2.42,0,0,1,1.76-.74,3.36,3.36,0,0,1,1.32.3c2.26,1,1.23,3.82,1.22,3.85-.19.47-.2.68,0,.81l.09,0h.06a1.61,1.61,0,0,0,.44-.11,3.81,3.81,0,0,1,1.2-.27,3.07,3.07,0,1,1,0,6.13M467.11,513c-3.73-3.24-12.35-10.7-14.68-12.45a10.4,10.4,0,0,0-3-1.76,5,5,0,0,0-1.5-.23,6.35,6.35,0,0,0-1.9.32,15.62,15.62,0,0,0-4.47,2.81l-.07.06a12.28,12.28,0,0,1-3.81,2.42,6.55,6.55,0,0,1-1.41.15,3.62,3.62,0,0,1-2.65-.85c-.07-.09,0-.22.13-.41l0,0,3.28-3.52c2.57-2.56,5-5,10.58-5.1h.28a19.85,19.85,0,0,1,7.34,1.73,22.8,22.8,0,0,0,10,2.39,26.29,26.29,0,0,0,11-2.62c-.43-.36-.87-.71-1.33-1a24.35,24.35,0,0,1-9.65,2.18,21.36,21.36,0,0,1-9.37-2.24,21.2,21.2,0,0,0-8-1.88h-.32a13.91,13.91,0,0,0-9.11,3.22,18,18,0,0,0-4.55.83,12.52,12.52,0,0,1-3.2.61c-.41,0-1.15,0-1.22,0A63.05,63.05,0,0,1,418,494.38c-.47.33-.92.67-1.36,1A57.06,57.06,0,0,0,429.09,499c.51,0,1.06.09,1.61.09a13.68,13.68,0,0,0,3.61-.67c.7-.19,1.46-.41,2.27-.56l-.65.64-3.33,3.59a1.66,1.66,0,0,0-.46,1.83,2.34,2.34,0,0,0,.88,1,7,7,0,0,0,3.54.89,6.38,6.38,0,0,0,1.41-.15c1.4-.31,2.86-1.47,4.42-2.7a14.7,14.7,0,0,1,4.34-2.59,4.93,4.93,0,0,1,1.21-.17l.31,0a6.57,6.57,0,0,1,3.29,1.56c2.73,2,14.84,12.59,15,12.69a2.31,2.31,0,0,1,.73,1.77,1.94,1.94,0,0,1-1,1.54,3,3,0,0,1-1.59.49,2.63,2.63,0,0,1-1.4-.41s-4.19-3.82-5.72-5.1a1.3,1.3,0,0,0-.72-.38.4.4,0,0,0-.32.15c-.24.29,0,.7.35,1l4.84,4.85a2.29,2.29,0,0,1,.67,1.31,2.2,2.2,0,0,1-1.15,2,3.12,3.12,0,0,1-1.72.57,2.52,2.52,0,0,1-1.38-.41l-.7-.68c-1.27-1.24-2.58-2.53-3.54-3.33a1.29,1.29,0,0,0-.72-.37.41.41,0,0,0-.31.13c-.11.12-.19.34.09.7a2.21,2.21,0,0,0,.24.27l3.54,4a1.34,1.34,0,0,1,.08,1.69l-.13.16a3.82,3.82,0,0,1-.33.32,2.84,2.84,0,0,1-1.73.55,2.75,2.75,0,0,1-.48,0,1.19,1.19,0,0,1-.69-.29l0,0c-.19-.2-2-2-3.45-3.24a1.22,1.22,0,0,0-.69-.37.43.43,0,0,0-.32.14c-.29.32.14.79.33,1l3,3.31a.7.7,0,0,1-.12.2c-.11.15-.47.51-1.57.65l-.4,0a6.93,6.93,0,0,1-3-.87,4.43,4.43,0,0,0,.43-1.9,4.5,4.5,0,0,0-4.51-4.48H443a4,4,0,0,0-2.28-4.21,4.76,4.76,0,0,0-1.88-.41,3.84,3.84,0,0,0-1.38.25,3.78,3.78,0,0,0-2.2-1.86,5,5,0,0,0-1.61-.28,4.26,4.26,0,0,0-2.52.8,3.8,3.8,0,0,0-5.65-.32c-.94-.72-4.66-3.07-14.63-5.32q-1.14-.29-2.27-.62a15.82,15.82,0,0,0-.26,1.63l2.2.52c10.18,2.25,13.55,4.59,14.11,5a3.81,3.81,0,0,0,4.22,5.2,4.44,4.44,0,0,0,2.88,3.31,3.61,3.61,0,0,0,2.23.15,4,4,0,0,0,2.37,2.21,4,4,0,0,0,1.5.31,3.34,3.34,0,0,0,1.16-.21,4.5,4.5,0,0,0,7.38,1.42,8.52,8.52,0,0,0,3.81,1.13,4.24,4.24,0,0,0,.58,0,3.48,3.48,0,0,0,2.58-1.26,2,2,0,0,0,.16-.26,4.47,4.47,0,0,0,1.22.19,4.12,4.12,0,0,0,2.46-.88,3.36,3.36,0,0,0,1.45-2.1v0a4,4,0,0,0,.82.09,4.59,4.59,0,0,0,2.53-.8,3.63,3.63,0,0,0,1.81-3.23,4.17,4.17,0,0,0,.83.09A4.39,4.39,0,0,0,467,519a3.45,3.45,0,0,0,1.65-2.67,3.6,3.6,0,0,0-.52-2.16,98.46,98.46,0,0,1,15.7-4.89,15.88,15.88,0,0,0-.22-1.62A90.41,90.41,0,0,0,467.11,513m144.54-8.1a3.82,3.82,0,0,1-5.85,0,7.8,7.8,0,0,1,0-7.73,3.83,3.83,0,0,1,5.85,0,7.84,7.84,0,0,1,0,7.73Zm3.47-10.12q-2.09-2.65-6.37-2.65t-6.37,2.65a10.4,10.4,0,0,0,0,12.54q2.09,2.6,6.37,2.61t6.37-2.61a10.41,10.41,0,0,0,0-12.54Zm-37.95,8.06a3.52,3.52,0,0,1-1.25,3,4.51,4.51,0,0,1-2.62.83,2.38,2.38,0,0,1-1.53-.5,2,2,0,0,1-.63-1.62,2,2,0,0,1,1-1.86,6.46,6.46,0,0,1,2-.6l1-.19a7.27,7.27,0,0,0,1.16-.3,4.42,4.42,0,0,0,.84-.42Zm2.2-9.54a10.53,10.53,0,0,0-4.87-1.09q-4.22,0-5.94,2.21a6.44,6.44,0,0,0-1.23,3.61h4.19a3.17,3.17,0,0,1,.62-1.54,2.75,2.75,0,0,1,2.21-.77,4.48,4.48,0,0,1,2.11.39,1.47,1.47,0,0,1,.72,1.42,1.31,1.31,0,0,1-.94,1.24,6.78,6.78,0,0,1-1.74.38l-1.49.18a10.55,10.55,0,0,0-3.84,1.08,4.77,4.77,0,0,0-2.38,4.47,4.62,4.62,0,0,0,1.48,3.68,5.84,5.84,0,0,0,3.75,1.3c9.49.43,9.38-5,9.47-6.17v-6.29q0-3-2.13-4.12h0ZM557.74,496a2.82,2.82,0,0,1,2.4,1,3.76,3.76,0,0,1,.66,1.69h4.68q-.38-3.57-2.48-5a9.5,9.5,0,0,0-5.39-1.41,7.83,7.83,0,0,0-6.06,2.39,9.5,9.5,0,0,0-2.2,6.68,9.37,9.37,0,0,0,2,6.19q2,2.39,6.21,2.39a7.46,7.46,0,0,0,6.37-2.86,7.08,7.08,0,0,0,1.51-3.76h-4.66a4,4,0,0,1-.82,2.14,2.8,2.8,0,0,1-2.28.83,3,3,0,0,1-3.08-2.08,8,8,0,0,1-.45-2.95,8.75,8.75,0,0,1,.45-3.08A3.14,3.14,0,0,1,557.74,496Zm-9.64-3.69c-9.62,0-9,8.57-9,8.57v8.7h4.36v-8.16a6.77,6.77,0,0,1,.5-3q.9-1.71,3.51-1.72c.42,0,.83,0,1.25.08v-4.47l-.37,0h-.2Zm-21.89,4.55a3.44,3.44,0,0,1,2.59-1,3.78,3.78,0,0,1,2.57.9,3.65,3.65,0,0,1,1.15,2.64h-7.46a4.53,4.53,0,0,1,1.15-2.58Zm5.87,8.18a3.18,3.18,0,0,1-.6.66,3.69,3.69,0,0,1-2.44.67,4.12,4.12,0,0,1-2.32-.56,4,4,0,0,1-1.77-3.49H537a22.3,22.3,0,0,0-.14-3.31,8.24,8.24,0,0,0-1.32-3.45,6.78,6.78,0,0,0-2.86-2.47,9.42,9.42,0,0,0-3.89-.78,8,8,0,0,0-5.93,2.31q-2.28,2.32-2.29,6.65,0,4.63,2.53,6.68A9,9,0,0,0,529,510a8,8,0,0,0,6.24-2.44A6,6,0,0,0,536.7,505h-4.63Zm-13.24,4.55h-4V499.45a2.81,2.81,0,0,0-2.93-3.12,3,3,0,0,0-3,3.12v10.1h-4v-10.1a2.79,2.79,0,0,0-2.9-3.12,2.93,2.93,0,0,0-3,3.12v10.1h-4v-10c0-4.17,2.75-7.33,7-7.33a6.12,6.12,0,0,1,5,2.33,6.33,6.33,0,0,1,5-2.33c4.35,0,6.92,3,6.92,7.33Zm74.92-4.61a3.2,3.2,0,0,1-2.8,1.38,3.05,3.05,0,0,1-2.74-1.39,7.1,7.1,0,0,1-.9-3.81,6.75,6.75,0,0,1,.89-3.59,3,3,0,0,1,2.79-1.45,3.3,3.3,0,0,1,2.19.8c1,.88,1.53,2.45,1.53,4.5a6.12,6.12,0,0,1-1,3.56ZM599,487s-4.39-.47-4.39,3.09v4.7a5.2,5.2,0,0,0-4.58-2.51,6.34,6.34,0,0,0-5.22,2.45,10.84,10.84,0,0,0-2,6.84,9.13,9.13,0,0,0,2,6.07c1.32,1.57,3.92,2.27,6.22,2.27,8,0,7.94-6.94,7.94-6.94Zm-55.32,35.15a3.4,3.4,0,0,1,2.56-.95,3.74,3.74,0,0,1,2.55.89,3.62,3.62,0,0,1,1.15,2.61h-7.41a4.52,4.52,0,0,1,1.15-2.56Zm5.81,8.5a3.1,3.1,0,0,1-.59.66,3.78,3.78,0,0,1-2.45.7,4.08,4.08,0,0,1-2.3-.56,4,4,0,0,1-1.72-3.49h12a21.93,21.93,0,0,0-.14-3.28,8.2,8.2,0,0,0-1.31-3.42,6.72,6.72,0,0,0-2.84-2.44,9.26,9.26,0,0,0-3.86-.77,7.9,7.9,0,0,0-5.88,2.29q-2.26,2.3-2.26,6.59,0,4.59,2.51,6.62a8.9,8.9,0,0,0,5.79,2,8,8,0,0,0,6.18-2.41,5.86,5.86,0,0,0,1.5-2.51h-4.58Zm-28.34-.08A3.06,3.06,0,0,1,518.4,532a3.19,3.19,0,0,1-2.8-1.38,6.14,6.14,0,0,1-1-3.57q0-3.06,1.53-4.38a3.31,3.31,0,0,1,2.19-.79,3,3,0,0,1,2.79,1.45,7.83,7.83,0,0,1,0,7.28Zm-2-12.83a5.19,5.19,0,0,0-4.57,2.51v-7.9s-4.39-.44-4.39,3.16v12.8s-.09,6.94,7.94,6.94c2.3,0,4.9-.69,6.22-2.27a9.14,9.14,0,0,0,2-6.07,10.47,10.47,0,0,0-2-6.72,6.32,6.32,0,0,0-5.22-2.45Zm18,.3H537c-9.62,0-9,8.57-9,8.57v8.57h4.36v-8a6.71,6.71,0,0,1,.5-3q.89-1.71,3.51-1.72.63,0,1.25.08v-4.47Zm-41.58-2.56v19.33h4.09V512.33S495.63,512.17,495.63,515.48ZM507,516.7H502.6v-4.37H507v4.37Zm-4.38,18.65H507V518.67H502.6Z" transform="translate(-406.78 -484.91)" style="fill:#2d3277"/></svg>